<svg xmlns="http://www.w3.org/2000/svg" width="1100" height="760" viewBox="0 0 1100 760">

<style>
.bg { fill:#0d1117; }
.border { fill:none; stroke:#30363d; stroke-width:2; }
.header { fill:#161b22; }

.title{
    fill:#f0f6fc;
    font-family:monospace;
    font-size:24px;
    font-weight:bold;
}

.label{
    fill:#d29922;
    font-family:monospace;
    font-size:20px;
    font-weight:bold;
}

.blue{
    fill:#79c0ff;
    font-family:monospace;
    font-size:20px;
}

.green{
    fill:#3fb950;
    font-family:monospace;
    font-size:20px;
}

.cyan{
    fill:#56d4dd;
    font-family:monospace;
    font-size:20px;
}

.pink{
    fill:#d2a8ff;
    font-family:monospace;
    font-size:20px;
}

.red{
    fill:#ff7b72;
    font-family:monospace;
    font-size:20px;
}

.white{
    fill:#f0f6fc;
    font-family:monospace;
    font-size:20px;
}
</style>

<rect class="bg" width="1100" height="760" rx="14"/>
<rect class="header" width="1100" height="46" rx="14"/>

<circle cx="22" cy="23" r="7" fill="#ff5f56"/>
<circle cx="44" cy="23" r="7" fill="#ffbd2e"/>
<circle cx="66" cy="23" r="7" fill="#27c93f"/>

<rect x="22" y="8" width="1064" height="742" rx="10" class="border"/>

<text x="550" y="30" text-anchor="middle" class="title">lagan@github</text>
    
<!-- Left Column -->

<text x="40" y="90" class="label">OS</text>
<text x="220" y="90" class="blue">Kali Linux, Windows 11, Android</text>

<text x="40" y="125" class="label">Role</text>
<text x="220" y="125" class="cyan">Security Researcher</text>

<text x="40" y="160" class="label">Experience</text>
<text x="220" y="160" class="green">Bug Bounty Hunter</text>

<text x="40" y="195" class="label">IDE</text>
<text x="220" y="195" class="blue">VS Code, Android Studio</text>

<text x="40" y="230" class="label">Browser</text>
<text x="220" y="230" class="blue">Burp Suite Professional</text>

<text x="40" y="265" class="label">Languages</text>
<text x="220" y="265" class="pink">Python • Java • JavaScript • Bash</text>

<text x="40" y="300" class="label">Security</text>
<text x="220" y="300" class="red">Web • API • Android • SAST • DAST</text>

<!-- Right Column -->

<text x="620" y="90" class="label">Achievements</text>

<text x="620" y="125" class="green">• Microsoft Hall of Fame</text>
<text x="620" y="155" class="green">• Google Hall of Fame</text>
<text x="620" y="185" class="green">• Dell Hall of Fame</text>
<text x="620" y="215" class="green">• NASA Hall of Fame</text>
<text x="620" y="245" class="green">• 40+ Organizations Secured</text>

<text x="40" y="350" class="label">Certifications</text>

<text x="60" y="385" class="cyan">• eWPTX</text>
<text x="60" y="415" class="cyan">• eJPT</text>
<text x="60" y="445" class="cyan">• CAP</text>
<text x="60" y="475" class="cyan">• CNSP</text>

<text x="40" y="535" class="label">Platforms</text>

<text x="60" y="570" class="pink">• HackTheBox (Top 600)</text>
<text x="60" y="600" class="pink">• TryHackMe (Top 2%)</text>


<text x="620" y="320" class="label">Projects</text>

<text x="640" y="355" class="blue">• Splitter - Burp Suite Extension</text>
<text x="640" y="385" class="blue">• BlueMoon - Recon Automation Toolkit</text>

<!-- Contact -->

<text x="620" y="445" class="label">Contact</text>

<text x="640" y="480" class="label">LinkedIn</text>
<text x="760" y="480" class="blue">linkedin.com/in/laganparihar</text>

<text x="640" y="515" class="label">GitHub</text>
<text x="760" y="515" class="blue">github.com/lagan1</text>

<!-- Footer -->
<line x1="40" y1="750" x2="1060" y2="750" stroke="#30363d"/>

</svg>
